inDegrees=no
num_controls=7
num_derivatives=13
num_iterations=113
num_multipliers=7
num_parameters=0
num_slacks=7
num_states=26
objective=0.478053
objective_accelerations=0.042377
objective_balance=0.003635
objective_effort=0.039248
objective_height=0.387078
objective_ligament=0.005715
solver_duration=1618.340059
status=Solve_Succeeded
success=true
DataType=double
version=3
OpenSimVersion=4.5
endheader
time	/jointset/ground_pelvis/pelvis_tilt/value	/jointset/ground_pelvis/pelvis_tx/value	/jointset/ground_pelvis/pelvis_ty/value	/jointset/hip_l/hip_flexion_l/value	/jointset/hip_l/hip_adduction_l/value	/jointset/hip_l/hip_rotation_l/value	/jointset/back/lumbar_extension/value	/jointset/patellofemoral_l/patellar_flexion_l/value	/jointset/knee_l/knee_flexion_l/value	/jointset/knee_l/knee_adduction_l/value	/jointset/knee_l/knee_rotation_l/value	/jointset/ankle_l/ankle_angle_l/value	/jointset/subtalar_l/subtalar_angle_l/value	/jointset/ground_pelvis/pelvis_tilt/speed	/jointset/ground_pelvis/pelvis_tx/speed	/jointset/ground_pelvis/pelvis_ty/speed	/jointset/hip_l/hip_flexion_l/speed	/jointset/hip_l/hip_adduction_l/speed	/jointset/hip_l/hip_rotation_l/speed	/jointset/back/lumbar_extension/speed	/jointset/patellofemoral_l/patellar_flexion_l/speed	/jointset/knee_l/knee_flexion_l/speed	/jointset/knee_l/knee_adduction_l/speed	/jointset/knee_l/knee_rotation_l/speed	/jointset/ankle_l/ankle_angle_l/speed	/jointset/subtalar_l/subtalar_angle_l/speed	/forceset/tau_hip_flexion_l	/forceset/tau_hip_adduction_l	/forceset/tau_hip_rotation_l	/forceset/tau_knee_flexion_l	/forceset/tau_ankle_angle_l	/forceset/tau_subtalar_angle_l	/forceset/tau_lumbar_extension	lambda_cid13_p0	lambda_cid13_p1	lambda_cid13_p2	lambda_cid13_p3	lambda_cid13_p4	lambda_cid13_p5	lambda_cid14_p0	/jointset/ground_pelvis/pelvis_tilt/accel	/jointset/ground_pelvis/pelvis_tx/accel	/jointset/ground_pelvis/pelvis_ty/accel	/jointset/hip_l/hip_flexion_l/accel	/jointset/hip_l/hip_adduction_l/accel	/jointset/hip_l/hip_rotation_l/accel	/jointset/back/lumbar_extension/accel	/jointset/patellofemoral_l/patellar_flexion_l/accel	/jointset/knee_l/knee_flexion_l/accel	/jointset/knee_l/knee_adduction_l/accel	/jointset/knee_l/knee_rotation_l/accel	/jointset/ankle_l/ankle_angle_l/accel	/jointset/subtalar_l/subtalar_angle_l/accel	gamma_cid13_p0	gamma_cid13_p1	gamma_cid13_p2	gamma_cid13_p3	gamma_cid13_p4	gamma_cid13_p5	gamma_cid14_p0
0	-0.03674202887412	0.05664223588905003	0.9203431047532927	0.3085816938045678	-0.2956164721150076	-0.3010987133623528	-0.3879492264334186	0.2499269421184919	0.2499269421184919	-0.1745308599846184	-0.174033408983567	-0.0008036623358878681	0.0004559546613775635	0	0	0	0	0	0	0	0	0	0	0	0	0	0.07196438852174133	-0.0446541719268288	-0.01990364292576821	-0.2438005481906793	0.1914689275387952	-0.01732351735540921	0.002914159156410769	17.91605499905759	1.806864399754059	2.204344256645708	9.706760951335403	-622.6715550676996	-71.25690063964099	-23.17997594910434	-0.9501008957770237	-2.018753656936278	-0.907263094668279	9.081276016269122	-0.85481686394259	3.366661385506506	-7.309428922456212	9.181217491196859	9.181217491196866	1.162357522470989	0.0190151869319631	1.556041090400571	-0.3890291389522985	-3.708763270480081e-09	2.765637940381611e-07	1.04760335672245e-07	-8.132644509098988e-09	1.660205320018319e-07	1.271650561138787e-08	8.724555350950259e-09
0.01	-0.03678580296650099	0.05654372302970481	0.9202989265442154	0.3090226009835834	-0.2956590298790724	-0.3009320001666426	-0.3883111633081464	0.2503762513405995	0.2503762513405995	-0.1744756385627225	-0.1740309015215049	-0.0007268684200618746	0.0004363644232583932	-0.00870172331197137	-0.01947838356291392	-0.008781803697103602	0.08755139529445773	-0.008436801282633155	0.03296327452255922	-0.07169106449013643	0.08939005000806335	0.0893900500080633	0.01105132248229269	0.0003235284459475638	0.01543458696446432	-0.003810238207426389	0.06632861050224086	-0.05340486620715678	-0.01948950921123145	-0.2418060848749601	0.1890870646175925	-0.006462753497241704	0.009139468306837283	17.41907334294784	-2.727628413148689	2.818389121303322	7.352390211491409	-626.5273161077594	-80.27998423831676	-23.18508944378524	-0.8222574840959249	-1.878754086577641	-0.8555300853730201	8.497554458436266	-0.8269583189763032	3.204253852555549	-6.994498643980462	8.747127848683462	8.747127848683446	1.077633049780015	0.01233575903077923	1.548544740859837	-0.360905871263951	-2.805644716851771e-08	1.815360418432223e-07	1.34280181383048e-07	1.758764600835237e-08	2.130355975917324e-08	-3.319618769714475e-08	-2.375895170291781e-09
0.02	-0.03691500417903943	0.05625715165860871	0.9201685520825388	0.3103201187500239	-0.295783724967674	-0.3004470355523216	-0.3893691215141131	0.2517053068814021	0.2517053068814021	-0.1743096812282695	-0.1740304959578625	-0.0004934531863131427	0.0003818948611397306	-0.01708542403149201	-0.03761170235017536	-0.01723925051987226	0.1713221174850021	-0.01642746490737132	0.06365028372211526	-0.1392042662477969	0.1759492637390222	0.175949263739022	0.02214718251144964	-0.00042037968391982	0.03132426358454762	-0.006975864799898457	0.06069283248274026	-0.06215556048748477	-0.01907537549669466	-0.2398116215592409	0.1867052016963898	0.004398010360925798	0.01536477745726372	16.99249338085091	-7.273317489107803	3.432927693541628	4.886693184293269	-629.3313500794525	-89.21570663584659	-23.20031096045424	-0.8864963772868768	-1.74974070180578	-0.8423917198012896	8.32514139548646	-0.7655893323635918	2.911408320905868	-6.473856375961022	8.615050235775964	8.615050235775946	1.171265031843843	-0.1944721282310262	1.647059021524369	-0.2601068159614341	-5.240413106655535e-08	8.650828964828351e-08	1.638000270938511e-07	4.330793652580373e-08	-1.234134124834854e-07	-7.910888100567736e-08	-1.347634569153382e-08
0.03	-0.03712666932760342	0.05579463707564877	0.9199547509976183	0.3124389754289809	-0.2959865274352078	-0.29966395439676	-0.3910838612314742	0.2538865228685158	0.2538865228685158	-0.1740337131764999	-0.1740407719336331	-0.0001004299384648739	0.0002979604440767971	-0.02519228370472896	-0.05480003547148024	-0.025509793027794	0.2520360784534404	-0.02410754629043915	0.09291343358351703	-0.2033274605247281	0.2598751824380832	0.2598751824380838	0.03291433562210232	-0.001539373219803694	0.04719721791604561	-0.009814320622870285	0.05410608134773653	-0.05567601726289011	-0.01818139422218101	-0.2336053359227777	0.1804428628774192	0.002596440103710298	0.02098015031204738	14.86826899536767	-6.205620841016895	3.361695974917176	5.653109672296837	-630.5463802557867	-86.14188615007957	-23.22522254901299	-0.7644863484071225	-1.689694036234794	-0.8177347682195275	7.882545574141043	-0.765428387857232	2.925869992936243	-6.319118448605556	8.218552740246091	8.218552740246212	1.009656925456286	-0.05627088855794567	1.544937477603447	-0.2962421883879129	-7.952347162120661e-08	7.801159047506395e-08	2.516259257326789e-07	6.323349978665949e-08	-2.120434441922381e-07	-1.335961985619784e-07	-2.500311859583115e-08
